<svg xmlns="http://www.w3.org/2000/svg" xmlns:xlink="http://www.w3.org/1999/xlink" width="1920" zoomAndPan="magnify" viewBox="0 0 1440 809.999993" height="1080" preserveAspectRatio="xMidYMid meet" version="1.0"><rect x="-144" width="1728" fill="#ffffff" y="-80.999999" height="971.999992" fill-opacity="1"/><rect x="-144" width="1728" fill="#000000" y="-80.999999" height="971.999992" fill-opacity="1"/><path stroke-linecap="butt" transform="matrix(0.60551, -0.749942, 0.749942, 0.60551, 365.986219, 300.686342)" fill="none" stroke-linejoin="miter" d="M 2.998065 1.999092 L 356.598799 1.999847 " stroke="#690da4" stroke-width="4" stroke-opacity="1" stroke-miterlimit="4"/><path stroke-linecap="round" transform="matrix(0.60551, -0.749942, 0.749942, 0.60551, 365.986219, 300.686342)" fill="none" stroke-linejoin="round" d="M 2.000165 -3.997801 L 1.998471 7.999281 " stroke="#690da4" stroke-width="4" stroke-opacity="1" stroke-miterlimit="4"/><path stroke-linecap="round" transform="matrix(0.60551, -0.749942, 0.749942, 0.60551, 365.986219, 300.686342)" fill="none" stroke-linejoin="round" d="M 357.598392 -4.000342 L 357.599244 7.999894 " stroke="#690da4" stroke-width="4" stroke-opacity="1" stroke-miterlimit="4"/><path stroke-linecap="butt" transform="matrix(-0.515002, -0.814757, 0.814757, -0.515002, 667.748589, 778.989365)" fill="none" stroke-linejoin="miter" d="M 3.000123 1.998768 L 580.034992 2.001195 " stroke="#690da4" stroke-width="4" stroke-opacity="1" stroke-miterlimit="4"/><path stroke-linecap="round" transform="matrix(-0.515002, -0.814757, 0.814757, -0.515002, 667.748589, 778.989365)" fill="none" stroke-linejoin="round" d="M 2.00089 -3.997743 L 2.000457 8.0023 " stroke="#690da4" stroke-width="4" stroke-opacity="1" stroke-miterlimit="4"/><path stroke-linecap="round" transform="matrix(-0.515002, -0.814757, 0.814757, -0.515002, 667.748589, 778.989365)" fill="none" stroke-linejoin="round" d="M 581.032492 -3.998912 L 581.032059 8.001131 " stroke="#690da4" stroke-width="4" stroke-opacity="1" stroke-miterlimit="4"/></svg>